<svg xmlns="http://www.w3.org/2000/svg" width="145" height="42" viewBox="0 0 145 42" fill="none"><g clip-path="url(#clip0_4035_78846)"><path d="M60.5273 23.3456C61.405 23.3456 62.1118 22.6388 62.1118 21.7612C62.1118 20.8835 61.405 20.1767 60.5273 20.1456L50.1352 20.1612C46.9896 20.1612 44.4343 17.6292 44.4343 14.4758C44.4343 11.3225 46.9896 8.79045 50.1352 8.79045L65.537 8.80599V12.9224H51.6498C50.7721 12.9224 50.0653 13.6292 50.0653 14.4991C50.0653 15.369 50.7721 16.0836 51.6498 16.0836H62.0419C65.1874 16.0836 67.7428 18.6389 67.7428 21.7845C67.7428 24.93 65.1874 27.4853 62.0419 27.4853H44.512V23.3301H60.5273V23.3456Z" fill="#231F20"></path><path d="M99.7656 8.78269L80.5038 8.79822V12.9147H96.8064C99.1054 12.9147 99.354 14.9574 99.4239 16.4952H85.7619C82.5464 16.4952 79.9989 18.6389 79.9989 21.7845C79.9989 24.93 82.5542 27.4853 85.6998 27.4853C85.6998 27.4853 94.8337 27.4853 99.8977 27.4853C103.043 27.4853 105.474 25.1164 105.474 21.8V14.4758C105.474 11.3302 102.927 8.79046 99.7734 8.79046L99.7656 8.78269ZM96.8608 23.3456H87.2221C86.3444 23.3456 85.6377 22.6388 85.6377 21.7612C85.6377 20.8835 86.3444 20.1767 87.2221 20.1456L99.3773 20.1612C99.3773 21.699 99.121 23.3534 96.8142 23.3611" fill="#231F20"></path><path d="M125.225 27.5009L144.301 27.4854V23.3689H128.185C125.886 23.3689 125.637 21.334 125.567 19.7884H139.229C142.445 19.7884 144.992 17.6447 144.992 14.4991C144.992 11.3535 142.437 8.79823 139.291 8.79823C139.291 8.79823 130.157 8.79823 125.101 8.79823C121.956 8.79823 119.525 11.1671 119.525 14.4836V21.8078C119.525 24.9533 122.08 27.4931 125.225 27.4931V27.5009ZM128.138 12.938H137.777C138.654 12.938 139.361 13.6448 139.361 14.5224C139.361 15.4001 138.654 16.1069 137.777 16.1379L125.622 16.1224C125.622 14.5846 125.878 12.9302 128.185 12.9224" fill="#231F20"></path><path d="M74.4767 21.6913V12.9224H79.5718V8.79822H74.4767V5.76914H68.3486V8.79822H66.5156V12.9224H68.3486V21.7612C68.3486 25.2407 70.8651 27.5009 74.9893 27.5009H79.5718V23.3767H75.9602C75.1213 23.3767 74.4767 22.5378 74.4767 21.699" fill="#231F20"></path><path d="M113.684 21.6913V12.9224H118.779V8.79822H113.684V5.76914H107.556V8.79822H105.801V12.9224H107.556V21.7612C107.556 25.2407 110.072 27.5009 114.197 27.5009H118.779V23.3767H115.167C114.329 23.3767 113.684 22.5378 113.684 21.699" fill="#231F20"></path><path d="M48.4343 38.1881H47.0052L44.3955 30.5144H45.8634L47.7353 36.7512H47.7586L50.011 30.5144H51.4867L53.7391 36.7512H53.7701L55.6342 30.5144H57.1332L54.4925 38.1881H53.0711L50.7799 31.827H50.7488L48.4343 38.1881Z" fill="#231F20"></path><path d="M57.475 35.9513L56.4264 38.1881H55.0284L58.7953 30.5144H60.3332L63.9603 38.1881H62.4768L61.4827 35.9513H57.4594H57.475ZM61.0089 35.0348L59.5254 31.6562H59.4943L57.8866 35.0348H61.0011H61.0089Z" fill="#231F20"></path><path d="M61.5526 30.5144H69.6923V31.4309H66.2981V38.1881H64.9467V31.4309H61.5526V30.5144Z" fill="#231F20"></path><path d="M77.3737 38.1881H69.9719V30.5144H77.2727V31.4309H71.3233V33.7843H76.8145V34.7008H71.3233V37.2639H77.3737V38.1881Z" fill="#231F20"></path><path d="M79.2689 38.1881H77.9174V30.5144H82.5543C84.2008 30.5144 85.8474 30.9494 85.8474 32.5727C85.8474 33.7066 85.094 34.1183 84.4494 34.4134C85.0241 34.5921 85.5911 34.7862 85.6455 35.8581L85.7309 37.2483C85.7464 37.6755 85.8163 37.8386 86.2358 38.0172V38.1881H84.5736C84.3795 37.7143 84.3329 36.5493 84.3329 36.2619C84.3329 35.6328 84.1698 34.895 82.5465 34.895H79.2689V38.1881ZM79.2689 34.0095H82.4067C83.4008 34.0095 84.4416 33.8154 84.4416 32.6892C84.4416 31.563 83.3076 31.4076 82.6397 31.4076H79.2611V34.0173L79.2689 34.0095Z" fill="#231F20"></path><path d="M95.5172 30.5144H96.8686V38.1881H95.5172V34.6076H90.2823V38.1881H88.9231V30.5144H90.2823V33.6833H95.5172V30.5144Z" fill="#231F20"></path><path d="M105.133 38.1881H97.7385V30.5144H105.039V31.4309H99.09V33.7843H104.581V34.7008H99.09V37.2639H105.133V38.1881Z" fill="#231F20"></path><path d="M107.649 35.9513L106.6 38.1881H105.202L108.969 30.5144H110.507L114.142 38.1881H112.659L111.672 35.9513H107.649ZM111.183 35.0348L109.699 31.6562H109.668L108.061 35.0348H111.175H111.183Z" fill="#231F20"></path><path d="M112.006 30.5144H120.146V31.4309H116.752V38.1881H115.393V31.4309H112.006V30.5144Z" fill="#231F20"></path><path d="M127.68 38.1881H120.278V30.5144H127.587V31.4309H121.637V33.7843H127.121V34.7008H121.637V37.2639H127.68V38.1881Z" fill="#231F20"></path><path d="M129.583 38.1881H128.231V30.5144H132.868C134.515 30.5144 136.161 30.9494 136.161 32.5727C136.161 33.7066 135.408 34.1183 134.763 34.4134C135.338 34.5921 135.905 34.7862 135.967 35.8581L136.053 37.2483C136.068 37.6755 136.138 37.8386 136.557 38.0172V38.1881H134.895C134.701 37.7143 134.655 36.5493 134.655 36.2619C134.655 35.6328 134.484 34.895 132.868 34.895H129.591V38.1881H129.583ZM129.583 34.0095H132.721C133.715 34.0095 134.756 33.8154 134.756 32.6892C134.756 31.563 133.622 31.4076 132.954 31.4076H129.575V34.0173L129.583 34.0095Z" fill="#231F20"></path><path d="M142.786 32.7591C142.717 31.5707 141.435 31.1979 140.301 31.1979C139.447 31.1979 138.01 31.3766 138.01 32.5416C138.01 33.194 138.608 33.4115 139.198 33.5125L142.056 34.0173C143.353 34.2503 144.332 34.8484 144.332 36.0678C144.332 37.8852 142.126 38.3901 140.41 38.3901C138.553 38.3901 137.823 37.9629 137.381 37.6522C136.526 37.0619 136.363 36.425 136.363 35.7105H137.637C137.637 37.1008 139.12 37.5046 140.402 37.5046C141.381 37.5046 143.027 37.3105 143.027 36.2076C143.027 35.4076 142.538 35.1513 140.891 34.8484L138.841 34.4833C138.181 34.3668 136.705 34.0173 136.705 32.6814C136.705 31.4853 137.722 30.3125 140.153 30.3125C143.656 30.3125 144.006 31.9125 144.068 32.7591H142.794H142.786Z" fill="#231F20"></path><path d="M0 21C0 9.68365 9.17269 0.510956 20.489 0.510956C31.8054 0.510956 40.9781 9.68365 40.9781 21C40.9781 32.3164 31.8054 41.489 20.489 41.489C9.17269 41.489 0 32.3164 0 21Z" fill="#231F20"></path><path d="M20.4891 39.9046C30.9278 39.9046 39.3937 31.4387 39.3937 21C39.3937 10.5613 30.9278 2.0954 20.4891 2.0954C10.0504 2.0954 1.58447 10.5535 1.58447 21C1.58447 31.4465 10.0504 39.9046 20.4891 39.9046Z" fill="#055CA9"></path><path d="M25.2346 5.25652C33.9335 5.25652 40.9781 12.3089 40.9781 21C40.9781 29.6911 33.9335 36.7435 25.2346 36.7435C16.5357 36.7435 9.49115 29.6911 9.49115 21C9.49115 12.3089 16.5357 5.25652 25.2346 5.25652Z" fill="#231F20"></path><path d="M11.0057 21C11.0057 28.8368 17.3512 35.1823 25.188 35.1823C33.0248 35.1823 39.3703 28.8368 39.3703 21C39.3703 13.1632 33.0248 6.81767 25.188 6.81767C17.3512 6.81767 11.0057 13.1632 11.0057 21Z" fill="#2D9ECC"></path><path d="M9.49115 21C9.49115 14.3826 14.8503 9.02346 21.4677 9.02346C28.0851 9.02346 33.4442 14.3826 33.4442 21C33.4442 27.6174 28.0851 32.9843 21.4677 32.9843C14.8503 32.9843 9.49115 27.6174 9.49115 21Z" fill="#231F20"></path><path d="M21.5376 31.5241C27.355 31.5241 32.0695 26.8096 32.0695 20.9922C32.0695 15.1748 27.355 10.4681 21.5376 10.4681C15.7202 10.4681 11.0057 15.1826 11.0057 20.9922C11.0057 26.8019 15.7202 31.5241 21.5376 31.5241Z" fill="#1CBFD9"></path><path d="M15.425 21C15.425 16.0214 19.4638 11.9826 24.4424 11.9826C29.421 11.9826 33.4675 16.0214 33.4675 21C33.4675 25.9786 29.4287 30.0251 24.4424 30.0251C19.4561 30.0251 15.425 25.9863 15.425 21Z" fill="#231F20"></path><path d="M24.5589 28.5183C28.7142 28.5183 32.0772 25.1553 32.0772 21C32.0772 16.8447 28.7064 13.4817 24.5589 13.4817C20.4114 13.4817 17.0405 16.8525 17.0405 21C17.0405 25.1475 20.4114 28.5183 24.5589 28.5183Z" fill="#F4811F"></path></g><defs><clipPath id="clip0_4035_78846"><rect width="145" height="40.9781" fill="white" transform="translate(0 0.510956)"></rect></clipPath></defs></svg>