<svg width="105" height="98" viewBox="0 0 105 98" fill="none" xmlns="http://www.w3.org/2000/svg">
<g clip-path="url(#clip0_11083_2695)">
<mask id="mask0_11083_2695" style="mask-type:luminance" maskUnits="userSpaceOnUse" x="0" y="0" width="105" height="98">
<path d="M104.328 0.59375H0.207275V97.3938H104.328V0.59375Z" fill="white"/>
</mask>
<g mask="url(#mask0_11083_2695)">
<path d="M51.0648 0.593791C58.5645 0.604817 65.8925 2.84932 72.1222 7.04348C78.3519 11.2376 83.2036 17.1931 86.0636 24.1568C88.9237 31.1205 89.6637 38.7796 88.1901 46.1657C86.7166 53.5519 83.0956 60.3332 77.7851 65.6523C72.4745 70.9714 65.713 74.5894 58.3554 76.0487C50.9978 77.508 43.3746 76.7432 36.4497 73.8509C29.5249 70.9585 23.6094 66.0686 19.4513 59.7995C15.2932 53.5304 13.0793 46.1636 13.0894 38.6306C13.0961 33.6284 14.0837 28.6766 15.9959 24.0578C17.908 19.439 20.7072 15.2438 24.2336 11.7117C27.76 8.17959 31.9445 5.37979 36.5483 3.47216C41.152 1.56454 46.0848 0.586469 51.0648 0.593791Z" fill="#E4002B"/>
<path d="M79.9689 58.8842C79.9605 59.2868 79.8339 59.6779 79.605 60.0085C79.3761 60.3391 79.0551 60.5944 78.6823 60.7425C78.3095 60.8905 77.9015 60.9247 77.5094 60.8407C77.1173 60.7567 76.7587 60.5583 76.4785 60.2703C76.1983 59.9823 76.0089 59.6177 75.9343 59.222C75.8596 58.8264 75.903 58.4175 76.0588 58.0465C76.2147 57.6755 76.4762 57.359 76.8105 57.1367C77.1447 56.9144 77.5369 56.7962 77.9378 56.797C78.2094 56.7939 78.4787 56.8462 78.7296 56.9506C78.9805 57.055 79.2077 57.2094 79.3975 57.4045C79.5874 57.5996 79.7359 57.8313 79.834 58.0856C79.9322 58.3399 79.9781 58.6116 79.9689 58.8842ZM79.5422 58.8842C79.5206 58.5727 79.4088 58.2743 79.2207 58.0256C79.0325 57.777 78.7761 57.589 78.4831 57.4847C78.19 57.3805 77.873 57.3644 77.571 57.4386C77.269 57.5129 76.9951 57.6741 76.7831 57.9025C76.571 58.1309 76.4301 58.4165 76.3774 58.7243C76.3248 59.0321 76.3628 59.3486 76.4868 59.635C76.6108 59.9214 76.8154 60.1651 77.0755 60.3363C77.3355 60.5075 77.6397 60.5986 77.9506 60.5985C78.1689 60.5966 78.3846 60.5501 78.5844 60.4618C78.7843 60.3734 78.9641 60.2452 79.113 60.0848C79.2619 59.9244 79.3768 59.7352 79.4505 59.5288C79.5243 59.3224 79.5555 59.1031 79.5422 58.8842Z" fill="white"/>
<path d="M77.5239 59.0779V60.0636H77.1484V57.7578H78.0018C78.5565 57.7578 78.8552 57.955 78.8552 58.4221C78.8612 58.5042 78.85 58.5867 78.8222 58.6641C78.7945 58.7416 78.7508 58.8123 78.6941 58.8717C78.6374 58.9311 78.5688 58.9779 78.4929 59.009C78.417 59.0401 78.3355 59.0548 78.2536 59.0521L78.8979 60.0679H78.4712L77.8781 59.0821L77.5239 59.0779ZM77.5239 58.7564H77.9506C78.2322 58.7564 78.484 58.7307 78.484 58.3964C78.484 58.0621 78.2152 58.0835 77.9847 58.0835H77.5239V58.7564Z" fill="white"/>
<path d="M59.748 43.7777V42.7019C59.748 34.0617 57.7767 30.8559 55.3232 30.8516C52.8698 30.8473 50.8771 34.0488 50.8643 42.6891C50.8515 51.3293 52.8399 54.5351 55.2934 54.5394C57.3543 54.5394 59.0909 52.2765 59.5987 46.3963L56.6118 45.9977C56.4966 49.5721 56.1425 50.9736 55.3318 50.9736C54.3461 50.9736 54.0517 48.9978 54.0517 43.7562H59.7949L59.748 43.7777ZM55.3232 34.4088C56.2662 34.4088 56.6033 36.2474 56.6374 41.039H54.0133C54.0688 36.2432 54.376 34.4088 55.3232 34.4131" fill="white"/>
<path d="M69.8221 43.789V42.7175C69.8221 34.0773 67.8508 30.8715 65.3973 30.8672C62.9439 30.8629 60.9555 34.0644 60.9427 42.7047C60.9299 51.3449 62.9183 54.5507 65.3675 54.555C67.4327 54.555 69.1693 52.2921 69.677 46.4119L66.6902 46.0134C66.575 49.5877 66.2209 50.9892 65.4101 50.9892C64.4245 50.9892 64.1301 49.0134 64.1301 43.7719H69.8733L69.8221 43.789ZM65.3931 34.4202C66.3403 34.4202 66.6731 36.2588 66.7073 41.0503H64.0874C64.1429 36.2545 64.4458 34.4202 65.3931 34.4244" fill="white"/>
<path d="M25.9879 40.8807C26.2714 40.9093 26.5565 40.9193 26.8413 40.9107C32.9984 40.3921 36.3906 35.0734 36.3949 29.1547C36.3949 23.3773 33.1905 18.7615 27.1272 18.7015C26.756 18.7015 26.3847 18.7529 26.0135 18.7529L25.9879 40.8807ZM22.2117 14.93C23.2032 14.8169 24.2008 14.7682 25.1985 14.7842C33.1478 14.8528 39.4884 18.9972 39.8468 28.2289C40.1114 35.0091 37.7646 40.3664 31.7397 43.4136L49.601 65.0229H45.6114L25.9837 42.4793L25.9581 62.4256H22.1477L22.2117 14.93Z" fill="white"/>
<path d="M44.2845 54.2868L44.3101 35.8577C44.3101 35.8577 44.3101 34.4134 45.4365 34.4134C46.563 34.4134 46.5971 35.862 46.5971 35.862L46.5758 54.2911H49.7035L49.7291 35.862V33.9762C49.7291 32.0219 48.2996 30.6247 46.5331 30.8604C45.6571 30.9951 44.8627 31.4536 44.3058 32.1462L44.3485 1.82812C43.2874 2.01956 42.2421 2.25814 41.2123 2.54386L41.144 54.274L44.2845 54.2868Z" fill="white"/>
<path d="M82.0723 30.8902C81.5558 30.8764 81.0441 30.9936 80.5847 31.2311C80.1253 31.4686 79.7329 31.8186 79.4439 32.2488C79.1562 31.8176 78.765 31.4663 78.3063 31.2273C77.8476 30.9884 77.3363 30.8694 76.8197 30.8816C76.3169 30.848 75.8137 30.9428 75.3571 31.1571C74.9005 31.3715 74.5054 31.6983 74.2084 32.1074V32.0859C73.9524 30.843 72.7576 30.8002 71.3197 31.0145L71.0765 31.0616L71.0381 54.3166H74.1743L74.1999 35.8875C74.1999 35.8875 74.1956 34.4474 75.305 34.4474C76.4144 34.4474 76.4699 35.8918 76.4699 35.8918L76.4485 54.3209H79.5719L79.5975 35.8918C79.5975 35.8918 79.5975 34.4474 80.724 34.4474C81.8504 34.4474 81.8888 35.896 81.8888 35.896L81.8675 54.3252H84.9994L85.025 35.896V34.0188V33.4788C85.025 32.0774 83.6937 30.9073 82.0382 30.9073" fill="white"/>
<path d="M3.05354 95.1163C2.6319 95.1214 2.21369 95.0397 1.82467 94.8763C1.48411 94.7326 1.18166 94.511 0.941423 94.2291C0.697764 93.9434 0.517408 93.6088 0.412327 93.2477C0.283265 92.8414 0.214259 92.4183 0.207515 91.9919C0.202646 91.5674 0.271967 91.1453 0.412327 90.7448C0.540622 90.3833 0.739347 90.0511 0.996893 89.7676C1.2395 89.4883 1.5413 89.2672 1.88014 89.1204C2.23 88.9608 2.60957 88.8776 2.9938 88.8761C3.4557 88.8622 3.91231 88.9779 4.31228 89.2104C4.65374 89.4217 4.94501 89.7055 5.16566 90.0419C5.37261 90.3818 5.51713 90.7564 5.59235 91.1476C5.66717 91.5227 5.69867 91.9053 5.68622 92.2877H1.24011C1.2288 92.5409 1.25907 92.7943 1.32971 93.0377C1.39906 93.2647 1.51214 93.4759 1.66253 93.6591C1.82245 93.8447 2.02236 93.9913 2.2471 94.0877C2.51714 94.2012 2.80782 94.2566 3.10048 94.2506C3.46233 94.2677 3.82002 94.167 4.12027 93.9634C4.39319 93.7527 4.57744 93.4468 4.63656 93.1063H5.60088C5.51898 93.7002 5.21359 94.2401 4.7475 94.6149C4.25937 94.9646 3.66981 95.1424 3.07061 95.1206M4.16294 90.2562C4.00813 90.0999 3.82393 89.976 3.62104 89.8919C3.40685 89.7993 3.17578 89.7526 2.9426 89.7547C2.7092 89.7502 2.47764 89.797 2.26416 89.8919C2.06864 89.976 1.89218 90.0992 1.74549 90.2539C1.59879 90.4086 1.48492 90.5916 1.41078 90.7919C1.3163 90.9988 1.25854 91.2207 1.24011 91.4476H4.65363C4.63925 91.2224 4.58882 91.001 4.50429 90.7919C4.42047 90.594 4.30033 90.4137 4.15014 90.2605" fill="black"/>
<path d="M8.02017 89.9674H8.0415C8.22465 89.6189 8.50402 89.3308 8.84611 89.1377C9.1882 88.9446 9.57848 88.8547 9.97014 88.8788C10.3031 88.871 10.6346 88.9262 10.9473 89.0417C11.1908 89.128 11.4082 89.2756 11.5788 89.4703C11.7431 89.6702 11.8572 89.9069 11.9116 90.1603C11.9815 90.4406 12.0159 90.7286 12.014 91.0175V94.9347H11.0369V90.9018C11.0499 90.7401 11.0277 90.5775 10.9717 90.4254C10.9157 90.2733 10.8273 90.1353 10.7128 90.021C10.5982 89.9067 10.4601 89.8189 10.3083 89.7638C10.1564 89.7087 9.99445 89.6875 9.8336 89.7017C9.56685 89.6951 9.30145 89.7418 9.05276 89.8389C8.84551 89.9246 8.66131 90.0582 8.51513 90.2289C8.36661 90.4054 8.25358 90.6092 8.18231 90.8289C8.11141 91.068 8.07688 91.3166 8.0799 91.5661V94.9304H7.10278V88.9731H8.02017V89.9674Z" fill="black"/>
<path d="M16.3618 97.3873C16.0749 97.3848 15.789 97.3532 15.5084 97.293C15.2329 97.2389 14.9687 97.1374 14.7276 96.993C14.4938 96.8589 14.2938 96.6727 14.143 96.4487C13.983 96.2056 13.8956 95.9215 13.8913 95.6301H14.8684C14.8801 95.7872 14.9397 95.9368 15.0391 96.0587C15.1446 96.183 15.2737 96.285 15.4188 96.3587C15.5701 96.4399 15.7326 96.4977 15.901 96.5301C16.072 96.568 16.2464 96.5881 16.4215 96.5901C16.7018 96.5967 16.9801 96.5411 17.2365 96.4273C17.452 96.316 17.64 96.1579 17.787 95.9644C17.9409 95.7501 18.0498 95.5066 18.107 95.2487C18.1693 94.9499 18.2007 94.6454 18.2008 94.3401V93.9501H18.1795C18.0246 94.3006 17.7572 94.5888 17.42 94.7687C17.0808 94.9383 16.7065 95.0249 16.3277 95.0215C15.9276 95.0322 15.5304 94.9501 15.1671 94.7815C14.8481 94.63 14.5656 94.4106 14.3393 94.1386C14.1216 93.8562 13.9595 93.5348 13.8614 93.1915C13.7463 92.8138 13.6887 92.4207 13.6907 92.0257C13.6917 91.66 13.7376 91.2958 13.8273 90.9414C13.9115 90.5752 14.0682 90.2298 14.2881 89.9257C14.5102 89.612 14.8025 89.3552 15.1415 89.1756C15.5362 88.9691 15.9765 88.8659 16.4215 88.8756C16.7817 88.8694 17.1373 88.9565 17.4541 89.1285C17.769 89.2917 18.0255 89.5494 18.188 89.8657V89.0085H19.1054V94.4601C19.1683 95.2485 18.9304 96.0315 18.4398 96.6501C18.0131 97.1344 17.3048 97.3745 16.349 97.3745M17.7358 93.4443C17.8785 93.2125 17.9836 92.9593 18.0472 92.6943C18.107 92.4212 18.1384 92.1425 18.1411 91.8629C18.139 91.603 18.1075 91.3442 18.0472 91.0914C17.992 90.8493 17.8952 90.6188 17.7614 90.41C17.6266 90.2046 17.4453 90.0342 17.2323 89.9128C16.9966 89.7857 16.7316 89.7236 16.4642 89.7328C16.1854 89.7229 15.9089 89.7865 15.662 89.9171C15.4485 90.0297 15.2643 90.1912 15.1244 90.3885C14.9706 90.5923 14.8642 90.8281 14.8129 91.0786C14.7436 91.3458 14.7092 91.621 14.7105 91.8972C14.7093 92.1678 14.7365 92.4379 14.7916 92.7029C14.8458 92.9615 14.9393 93.2101 15.0689 93.4401C15.1881 93.6601 15.3596 93.8471 15.5682 93.9844C15.8133 94.1208 16.0902 94.1889 16.3703 94.1815C16.6424 94.1963 16.9133 94.1363 17.1539 94.0079C17.3945 93.8795 17.5957 93.6876 17.7358 93.4529" fill="black"/>
<path d="M21.1152 86.7344H22.0966V87.9344H21.1152V86.7344ZM22.0924 94.9632H21.1152V89.0059H22.0966L22.0924 94.9632Z" fill="black"/>
<path d="M25.0111 89.9674H25.0325C25.2156 89.6189 25.495 89.3308 25.8371 89.1377C26.1792 88.9446 26.5695 88.8547 26.9611 88.8788C27.2941 88.871 27.6256 88.9262 27.9382 89.0417C28.1818 89.128 28.3992 89.2756 28.5697 89.4703C28.7341 89.6702 28.8482 89.9069 28.9026 90.1603C28.9725 90.4406 29.0069 90.7286 29.005 91.0175V94.9347H28.0321V90.9018C28.0452 90.7401 28.0229 90.5775 27.9669 90.4254C27.911 90.2733 27.8226 90.1353 27.708 90.021C27.5934 89.9067 27.4554 89.8189 27.3035 89.7638C27.1517 89.7087 26.9897 89.6875 26.8288 89.7017C26.5621 89.6951 26.2967 89.7418 26.048 89.8389C25.8408 89.9246 25.6566 90.0582 25.5104 90.2289C25.3619 90.4054 25.2488 90.6092 25.1776 90.8289C25.1067 91.068 25.0721 91.3166 25.0751 91.5661V94.9304H24.1023V88.9731H25.0197L25.0111 89.9674Z" fill="black"/>
<path d="M33.4893 95.1269C33.0683 95.1347 32.6501 95.0559 32.2605 94.8955C31.9199 94.7517 31.6175 94.5301 31.3772 94.2483C31.1325 93.96 30.9521 93.6224 30.8481 93.2583C30.7191 92.852 30.6501 92.4289 30.6433 92.0025C30.6384 91.578 30.7078 91.1558 30.8481 90.7553C30.9764 90.3938 31.1751 90.0617 31.4327 89.7782C31.6753 89.4989 31.9771 89.2778 32.3159 89.131C32.6668 88.9758 33.0463 88.897 33.4296 88.8996C33.8915 88.8856 34.3481 89.0014 34.7481 89.2339C35.0895 89.4451 35.3808 89.7289 35.6014 90.0653C35.8084 90.4053 35.9529 90.7798 36.0281 91.1711C36.1015 91.5464 36.1316 91.9289 36.1177 92.3111H31.6802C31.6689 92.5643 31.6991 92.8177 31.7698 93.0611C31.8391 93.2882 31.9522 93.4993 32.1026 93.6826C32.2624 93.8683 32.4623 94.0149 32.6872 94.1111C32.9572 94.2246 33.2479 94.2801 33.5405 94.274C33.9024 94.2912 34.2601 94.1904 34.5603 93.9869C34.8332 93.7762 35.0175 93.4703 35.0766 93.1297H36.0409C35.959 93.7237 35.6536 94.2636 35.1876 94.6383C34.6914 94.9866 34.0938 95.1585 33.4893 95.1269ZM34.5817 90.2625C34.4299 90.1106 34.2502 89.9898 34.0526 89.9067C33.8384 89.8141 33.6073 89.7674 33.3741 89.7696C33.1407 89.765 32.9092 89.8119 32.6957 89.9067C32.5002 89.9909 32.3237 90.114 32.177 90.2688C32.0303 90.4235 31.9164 90.6065 31.8423 90.8068C31.7561 91.0123 31.7056 91.2312 31.693 91.4539H35.1065C35.0921 91.2287 35.0417 91.0073 34.9571 90.7982C34.8733 90.6003 34.7532 90.42 34.603 90.2667" fill="black"/>
<path d="M40.2607 95.1198C39.8405 95.1243 39.4238 95.0427 39.0361 94.8798C38.6955 94.7361 38.3931 94.5145 38.1528 94.2327C37.9081 93.9444 37.7277 93.6068 37.6238 93.2426C37.4947 92.8364 37.4257 92.4133 37.4189 91.9869C37.4141 91.5623 37.4834 91.1402 37.6238 90.7397C37.752 90.3782 37.9508 90.046 38.2083 89.7625C38.4509 89.4833 38.7527 89.2621 39.0916 89.1154C39.4424 88.9602 39.8219 88.8813 40.2052 88.8839C40.6671 88.87 41.1237 88.9858 41.5237 89.2182C41.8652 89.4295 42.1564 89.7133 42.3771 90.0497C42.584 90.3897 42.7286 90.7642 42.8038 91.1554C42.8724 91.5356 42.8968 91.9225 42.8763 92.3083H38.4473C38.436 92.5616 38.4662 92.815 38.5369 93.0584C38.6062 93.2854 38.7193 93.4965 38.8697 93.6798C39.0295 93.8655 39.2294 94.0121 39.4543 94.1084C39.7243 94.2218 40.015 94.2773 40.3076 94.2712C40.6695 94.2884 41.0272 94.1877 41.3274 93.9841C41.6003 93.7734 41.7846 93.4675 41.8437 93.1269H42.808C42.7261 93.7209 42.4207 94.2608 41.9547 94.6355C41.4665 94.9853 40.877 95.1631 40.2778 95.1413M41.3701 90.2768C41.2183 90.125 41.0386 90.0042 40.841 89.9211C40.6268 89.8285 40.3957 89.7818 40.1626 89.784C39.9292 89.7794 39.6976 89.8262 39.4841 89.9211C39.2886 90.0053 39.1121 90.1284 38.9654 90.2831C38.8188 90.4379 38.7049 90.6209 38.6307 90.8211C38.5446 91.0267 38.494 91.2456 38.4814 91.4683H41.8949C41.8805 91.2431 41.8301 91.0217 41.7456 90.8126C41.6618 90.6147 41.5416 90.4344 41.3914 90.2811" fill="black"/>
<path d="M45.3896 90.2732H45.411C45.5982 89.8478 45.8922 89.4786 46.2644 89.2018C46.6572 88.9607 47.115 88.8484 47.5743 88.8803V89.9175C47.2345 89.9117 46.8964 89.9669 46.5758 90.0804C46.3166 90.1762 46.0871 90.3387 45.9102 90.5518C45.7346 90.775 45.6094 91.0338 45.5433 91.3104C45.4602 91.6423 45.4214 91.9839 45.428 92.3261V94.9748H44.4509V89.0175H45.3683L45.3896 90.2732Z" fill="black"/>
<path d="M51.3079 95.1269C50.8869 95.1347 50.4687 95.0559 50.0791 94.8955C49.7385 94.7517 49.4361 94.5301 49.1958 94.2483C48.9511 93.96 48.7707 93.6224 48.6667 93.2583C48.5377 92.852 48.4687 92.4289 48.4619 92.0025C48.457 91.578 48.5264 91.1558 48.6667 90.7553C48.795 90.3938 48.9937 90.0617 49.2513 89.7782C49.4939 89.4989 49.7957 89.2778 50.1345 89.131C50.4854 88.9758 50.8649 88.897 51.2482 88.8996C51.7101 88.8856 52.1667 89.0014 52.5667 89.2339C52.9081 89.4451 53.1994 89.7289 53.4201 90.0653C53.627 90.4053 53.7715 90.7798 53.8467 91.1711C53.9201 91.5464 53.9502 91.9289 53.9363 92.3111H49.4945C49.4832 92.5643 49.5135 92.8177 49.5841 93.0611C49.6535 93.2882 49.7665 93.4993 49.9169 93.6826C50.0767 93.8683 50.2767 94.0149 50.5015 94.1111C50.7715 94.2246 51.0622 94.2801 51.3549 94.274C51.7167 94.2912 52.0744 94.1904 52.3747 93.9869C52.6476 93.7762 52.8318 93.4703 52.891 93.1297H53.8553C53.7734 93.7237 53.468 94.2636 53.0019 94.6383C52.5138 94.988 51.9242 95.1659 51.325 95.144M52.4173 90.2796C52.2655 90.1278 52.0859 90.007 51.8882 89.9239C51.674 89.8313 51.443 89.7846 51.2098 89.7867C50.9764 89.7822 50.7448 89.829 50.5314 89.9239C50.3358 90.008 50.1594 90.1312 50.0127 90.2859C49.866 90.4406 49.7521 90.6237 49.678 90.8239C49.5918 91.0295 49.5413 91.2484 49.5286 91.4711H52.9422C52.9278 91.2459 52.8774 91.0244 52.7928 90.8153C52.709 90.6174 52.5889 90.4372 52.4387 90.2839" fill="black"/>
<path d="M59.8801 94.1703H59.8588C59.7001 94.4944 59.426 94.7468 59.0907 94.8775C58.7314 95.0281 58.345 95.1025 57.9557 95.096C57.5431 95.1086 57.1335 95.0219 56.761 94.8432C56.4278 94.6855 56.1357 94.4522 55.9076 94.1617C55.6735 93.8683 55.4982 93.5321 55.3913 93.1717C55.1622 92.3897 55.1622 91.5579 55.3913 90.7759C55.487 90.4175 55.6588 90.0842 55.8948 89.7987C56.12 89.5085 56.4132 89.2789 56.7482 89.1302C57.1164 88.9523 57.5217 88.8656 57.9301 88.8773C58.0963 88.8767 58.262 88.8925 58.4251 88.9244C58.6071 88.958 58.7847 89.0126 58.9542 89.0873C59.1347 89.1585 59.3043 89.2552 59.4577 89.3745C59.6123 89.4921 59.7439 89.6374 59.846 89.803H59.8673V86.7344H60.8444V94.9632H59.8673L59.8801 94.1703ZM56.7141 93.5703C56.8625 93.7794 57.0585 93.9499 57.2858 94.0674C57.5376 94.1971 57.818 94.2605 58.1008 94.2517C58.377 94.2656 58.6522 94.2084 58.9001 94.0853C59.1481 93.9623 59.3606 93.7776 59.5174 93.5489C59.6654 93.3281 59.7738 93.0829 59.8374 92.8246C59.8963 92.5557 59.9263 92.2813 59.927 92.006C59.9298 91.717 59.8953 91.4289 59.8246 91.1488C59.7653 90.8889 59.6566 90.643 59.5046 90.4245C59.3515 90.2148 59.1512 90.0445 58.9201 89.9273C58.6555 89.7937 58.3628 89.7261 58.0667 89.7302C57.77 89.7202 57.4758 89.7882 57.2133 89.9273C56.9888 90.0502 56.7993 90.2287 56.6629 90.4459C56.5198 90.6715 56.4186 90.9213 56.3642 91.1831C56.3053 91.465 56.2752 91.7522 56.2746 92.0402C56.2726 92.3173 56.3114 92.5932 56.3898 92.8588C56.456 93.112 56.5689 93.3504 56.7226 93.5617" fill="black"/>
<path d="M66.0842 89.0189H67.0827V88.1317C67.067 87.9283 67.0972 87.724 67.171 87.5341C67.2449 87.3441 67.3606 87.1733 67.5094 87.0345C67.852 86.7572 68.2866 86.6209 68.7254 86.6531C68.8193 86.6531 68.9217 86.6531 69.0455 86.6788C69.1518 86.6881 69.2565 86.7112 69.3569 86.7474V87.6045C69.2676 87.5729 69.1742 87.5542 69.0796 87.5488C68.9876 87.5368 68.895 87.5296 68.8022 87.5274C68.6091 87.515 68.4168 87.5629 68.2518 87.6645C68.1792 87.7309 68.1235 87.8138 68.0893 87.9063C68.0552 87.9987 68.0436 88.0981 68.0555 88.196V89.0231H69.2033V89.8803H68.0513V94.9762H67.0741V89.8846H66.0757L66.0842 89.0189Z" fill="black"/>
<path d="M70.8931 89.8092C71.1405 89.5205 71.4498 89.292 71.7977 89.1406C72.5928 88.8177 73.4817 88.8177 74.2768 89.1406C74.6247 89.2921 74.9339 89.5207 75.1814 89.8092C75.4289 90.0989 75.6161 90.4356 75.7318 90.7992C75.9762 91.595 75.9762 92.4463 75.7318 93.2422C75.6126 93.6043 75.4258 93.9403 75.1814 94.2322C74.9298 94.513 74.6214 94.7365 74.2768 94.8879C73.4788 95.1954 72.5957 95.1954 71.7977 94.8879C71.453 94.7368 71.1446 94.5132 70.8931 94.2322C70.6487 93.9403 70.4619 93.6043 70.3427 93.2422C70.0983 92.4463 70.0983 91.595 70.3427 90.7992C70.4585 90.4356 70.6457 90.099 70.8931 89.8092ZM71.7465 93.6922C71.9123 93.8713 72.1107 94.0168 72.3311 94.1208C72.5593 94.2226 72.8067 94.2737 73.0564 94.2708C73.3021 94.2748 73.5456 94.2235 73.769 94.1208C73.9952 94.0203 74.1984 93.8744 74.3664 93.6922C74.5423 93.487 74.6745 93.2478 74.7547 92.9893C74.8599 92.6776 74.9105 92.3498 74.904 92.0207C74.9112 91.6957 74.8606 91.3721 74.7547 91.0649C74.6773 90.8014 74.5449 90.5574 74.3664 90.3492C74.2006 90.1645 73.9967 90.0183 73.769 89.9206C73.5456 89.8179 73.3021 89.7666 73.0564 89.7706C72.8067 89.7677 72.5593 89.8188 72.3311 89.9206C72.1089 90.0215 71.9099 90.1675 71.7465 90.3492C71.5681 90.5596 71.4319 90.8026 71.3454 91.0649C71.2493 91.3742 71.2032 91.6968 71.2089 92.0207C71.2039 92.3487 71.25 92.6755 71.3454 92.9893C71.4344 93.2466 71.5705 93.485 71.7465 93.6922Z" fill="black"/>
<path d="M78.5007 90.2732H78.5221C78.7094 89.8479 79.0035 89.4787 79.3754 89.2018C79.7683 88.9607 80.2261 88.8484 80.6854 88.8803V89.9175C80.3456 89.9117 80.0075 89.9669 79.6869 90.0804C79.4277 90.1762 79.1982 90.3387 79.0213 90.5518C78.8457 90.775 78.7205 91.0338 78.6543 91.3104C78.5712 91.6423 78.5325 91.9839 78.5391 92.3261V94.9748H77.562V89.0175H78.4794L78.5007 90.2732Z" fill="black"/>
<path d="M86.2325 86.7578H85.2554V94.9866H86.2325V86.7578Z" fill="#E31E2D"/>
<path d="M88.2507 86.7344H89.2279V87.9344H88.2507V86.7344ZM89.2279 94.9632H88.2507V89.0059H89.2279V94.9632Z" fill="#E31E2D"/>
<path d="M90.6273 89.0189H91.6258V88.1317C91.6101 87.9283 91.6403 87.724 91.7141 87.5341C91.788 87.3441 91.9037 87.1733 92.0525 87.0345C92.3951 86.7572 92.8297 86.6209 93.2685 86.6531C93.3624 86.6531 93.4648 86.6531 93.5886 86.6788C93.6949 86.6881 93.7996 86.7112 93.9 86.7474V87.6045C93.8107 87.5729 93.7173 87.5542 93.6227 87.5488C93.5307 87.5368 93.4381 87.5296 93.3453 87.5274C93.1522 87.515 92.9599 87.5629 92.7949 87.6645C92.7223 87.7309 92.6666 87.8138 92.6324 87.9063C92.5983 87.9987 92.5867 88.0981 92.5986 88.196V89.0231H93.7464V89.8803H92.5986V94.9762H91.6215V89.8846H90.623L90.6273 89.0189Z" fill="#E31E2D"/>
<path d="M97.5311 95.1163C97.11 95.1241 96.6919 95.0453 96.3022 94.8849C95.9617 94.7412 95.6592 94.5196 95.419 94.2377C95.1742 93.9494 94.9938 93.6119 94.8899 93.2477C94.7608 92.8414 94.6918 92.4183 94.6851 91.9919C94.6802 91.5674 94.7495 91.1453 94.8899 90.7448C95.0182 90.3833 95.2169 90.0511 95.4744 89.7676C95.717 89.4883 96.0188 89.2672 96.3577 89.1204C96.7141 88.9579 97.1012 88.8745 97.4927 88.8761C97.9546 88.8622 98.4112 88.9779 98.8112 89.2104C99.1526 89.4217 99.4439 89.7055 99.6645 90.0419C99.8715 90.3818 100.016 90.7564 100.091 91.1476C100.165 91.5229 100.195 91.9055 100.181 92.2877H95.7219C95.7106 92.5409 95.7409 92.7943 95.8115 93.0377C95.8809 93.2647 95.9939 93.4759 96.1443 93.6591C96.3041 93.8448 96.5041 93.9914 96.7289 94.0877C96.999 94.2012 97.2896 94.2566 97.5823 94.2506C97.9441 94.2677 98.3018 94.167 98.6021 93.9634C98.875 93.7527 99.0592 93.4468 99.1184 93.1063H100.053C99.9709 93.7002 99.6655 94.2401 99.1994 94.6149C98.7113 94.9646 98.1217 95.1424 97.5225 95.1206M98.6149 90.2562C98.4631 90.1043 98.2834 89.9835 98.0858 89.9004C97.8716 89.8078 97.6405 89.7611 97.4073 89.7633C97.1739 89.7588 96.9424 89.8056 96.7289 89.9004C96.5334 89.9846 96.3569 90.1077 96.2102 90.2625C96.0635 90.4172 95.9497 90.6002 95.8755 90.8005C95.7893 91.0061 95.7388 91.2249 95.7262 91.4476H99.1397C99.1253 91.2224 99.0749 91.001 98.9904 90.7919C98.9065 90.594 98.7864 90.4137 98.6362 90.2605" fill="#E31E2D"/>
<path d="M101.115 87.235C101.289 87.0648 101.493 86.9296 101.717 86.8364C102.184 86.6483 102.705 86.6483 103.172 86.8364C103.395 86.9295 103.598 87.0648 103.77 87.235C103.949 87.4039 104.094 87.6063 104.196 87.8307C104.298 88.0645 104.348 88.3172 104.346 88.5722C104.349 88.8299 104.298 89.0855 104.196 89.3222C104.095 89.5487 103.95 89.7527 103.77 89.9222C103.599 90.0936 103.396 90.2291 103.172 90.3208C102.828 90.4637 102.45 90.5021 102.084 90.4313C101.719 90.3604 101.382 90.1834 101.115 89.9222C100.933 89.754 100.788 89.5497 100.689 89.3222C100.587 89.0855 100.536 88.8299 100.539 88.5722C100.537 88.3172 100.587 88.0645 100.689 87.8307C100.79 87.6054 100.935 87.4027 101.115 87.235ZM101.333 89.7379C101.471 89.8848 101.638 90.0003 101.824 90.0765C102.016 90.1615 102.224 90.2039 102.434 90.2008C102.639 90.2008 102.842 90.1599 103.031 90.0805C103.22 90.001 103.391 89.8845 103.535 89.7379C103.673 89.5873 103.782 89.4131 103.859 89.2236C103.937 89.0184 103.976 88.8004 103.974 88.5807C103.976 88.3653 103.937 88.1516 103.859 87.9507C103.783 87.7624 103.673 87.5895 103.535 87.4407C103.393 87.3 103.227 87.1867 103.044 87.1064C102.853 87.0247 102.646 86.9838 102.438 86.9864C102.229 86.9838 102.021 87.0247 101.828 87.1064C101.645 87.1853 101.478 87.2988 101.337 87.4407C101.196 87.5868 101.086 87.7604 101.013 87.9507C100.932 88.1507 100.891 88.3649 100.894 88.5807C100.891 88.8008 100.932 89.0193 101.013 89.2236C101.085 89.4148 101.193 89.5896 101.333 89.7379ZM102.553 87.4921C102.759 87.4743 102.964 87.5289 103.134 87.6464C103.198 87.7059 103.248 87.7793 103.28 87.8609C103.311 87.9426 103.324 88.0305 103.317 88.1179C103.324 88.1973 103.312 88.2771 103.283 88.3514C103.254 88.4256 103.209 88.4923 103.151 88.5465C103.031 88.6487 102.881 88.7075 102.724 88.7136L103.351 89.6865H102.984L102.387 88.7393H102.024V89.6865H101.683V87.4836L102.553 87.4921ZM102.404 88.4693H102.626C102.688 88.4682 102.748 88.4551 102.805 88.4307C102.858 88.4066 102.902 88.3679 102.933 88.3193C102.967 88.2579 102.984 88.1881 102.98 88.1179C102.983 88.0569 102.969 87.9964 102.942 87.9421C102.914 87.9003 102.876 87.8664 102.831 87.8436C102.783 87.8181 102.731 87.8007 102.677 87.7921H102.502H102.05V88.4522L102.404 88.4693Z" fill="#E31E2D"/>
</g>
</g>
<defs>
<clipPath id="clip0_11083_2695">
<rect width="104.121" height="96.8" fill="white" transform="translate(0.20752 0.601562)"/>
</clipPath>
</defs>
</svg>
